<?xml version="1.0" encoding="utf-8" standalone="no"?>
<!DOCTYPE svg PUBLIC "-//W3C//DTD SVG 1.1//EN"
  "http://www.w3.org/Graphics/SVG/1.1/DTD/svg11.dtd">
<svg xmlns:xlink="http://www.w3.org/1999/xlink" width="248.199925pt" height="56.920316pt" viewBox="0 0 248.199925 56.920316" xmlns="http://www.w3.org/2000/svg" version="1.1">
 <metadata>
  <rdf:RDF xmlns:dc="http://purl.org/dc/elements/1.1/" xmlns:cc="http://creativecommons.org/ns#" xmlns:rdf="http://www.w3.org/1999/02/22-rdf-syntax-ns#">
   <cc:Work>
    <dc:type rdf:resource="http://purl.org/dc/dcmitype/StillImage"/>
    <dc:date>2025-10-28T13:16:03.217565</dc:date>
    <dc:format>image/svg+xml</dc:format>
    <dc:creator>
     <cc:Agent>
      <dc:title>Matplotlib v3.10.7, https://matplotlib.org/</dc:title>
     </cc:Agent>
    </dc:creator>
   </cc:Work>
  </rdf:RDF>
 </metadata>
 <defs>
  <style type="text/css">*{stroke-linejoin: round; stroke-linecap: butt}</style>
 </defs>
 <g id="figure_1">
  <g id="patch_1">
   <path d="M 0 56.920316 
L 248.199925 56.920316 
L 248.199925 0 
L 0 0 
z
" style="fill: #ffffff"/>
  </g>
  <g id="axes_1">
   <g id="patch_2">
    <path d="M 9.849981 34.658437 
L 233.049981 34.658437 
L 233.049981 20.798437 
L 9.849981 20.798437 
z
" style="fill: #ffffff"/>
   </g>
   <g id="patch_3">
    <path d="M 9.849981 34.658437 
L 10.721856 34.658437 
L 10.721856 20.798437 
L 9.849981 20.798437 
z
" clip-path="url(#pf8bf03c720)" style="fill: #d7f9d0"/>
   </g>
   <g id="patch_4">
    <path d="M 10.721856 34.658437 
L 11.593731 34.658437 
L 11.593731 20.798437 
L 10.721856 20.798437 
z
" clip-path="url(#pf8bf03c720)" style="fill: #d6f8ce"/>
   </g>
   <g id="patch_5">
    <path d="M 11.593731 34.658437 
L 12.465606 34.658437 
L 12.465606 20.798437 
L 11.593731 20.798437 
z
" clip-path="url(#pf8bf03c720)" style="fill: #d4f7cd"/>
   </g>
   <g id="patch_6">
    <path d="M 12.465606 34.658437 
L 13.337481 34.658437 
L 13.337481 20.798437 
L 12.465606 20.798437 
z
" clip-path="url(#pf8bf03c720)" style="fill: #d3f6cb"/>
   </g>
   <g id="patch_7">
    <path d="M 13.337481 34.658437 
L 14.209356 34.658437 
L 14.209356 20.798437 
L 13.337481 20.798437 
z
" clip-path="url(#pf8bf03c720)" style="fill: #d2f5ca"/>
   </g>
   <g id="patch_8">
    <path d="M 14.209356 34.658437 
L 15.081231 34.658437 
L 15.081231 20.798437 
L 14.209356 20.798437 
z
" clip-path="url(#pf8bf03c720)" style="fill: #d1f4c8"/>
   </g>
   <g id="patch_9">
    <path d="M 15.081231 34.658437 
L 15.953106 34.658437 
L 15.953106 20.798437 
L 15.081231 20.798437 
z
" clip-path="url(#pf8bf03c720)" style="fill: #cff4c7"/>
   </g>
   <g id="patch_10">
    <path d="M 15.953106 34.658437 
L 16.824981 34.658437 
L 16.824981 20.798437 
L 15.953106 20.798437 
z
" clip-path="url(#pf8bf03c720)" style="fill: #cef3c5"/>
   </g>
   <g id="patch_11">
    <path d="M 16.824981 34.658437 
L 17.696856 34.658437 
L 17.696856 20.798437 
L 16.824981 20.798437 
z
" clip-path="url(#pf8bf03c720)" style="fill: #cdf2c4"/>
   </g>
   <g id="patch_12">
    <path d="M 17.696856 34.658437 
L 18.568731 34.658437 
L 18.568731 20.798437 
L 17.696856 20.798437 
z
" clip-path="url(#pf8bf03c720)" style="fill: #ccf1c3"/>
   </g>
   <g id="patch_13">
    <path d="M 18.568731 34.658437 
L 19.440606 34.658437 
L 19.440606 20.798437 
L 18.568731 20.798437 
z
" clip-path="url(#pf8bf03c720)" style="fill: #caf0c1"/>
   </g>
   <g id="patch_14">
    <path d="M 19.440606 34.658437 
L 20.312481 34.658437 
L 20.312481 20.798437 
L 19.440606 20.798437 
z
" clip-path="url(#pf8bf03c720)" style="fill: #c9efc0"/>
   </g>
   <g id="patch_15">
    <path d="M 20.312481 34.658437 
L 21.184356 34.658437 
L 21.184356 20.798437 
L 20.312481 20.798437 
z
" clip-path="url(#pf8bf03c720)" style="fill: #c8eebe"/>
   </g>
   <g id="patch_16">
    <path d="M 21.184356 34.658437 
L 22.056231 34.658437 
L 22.056231 20.798437 
L 21.184356 20.798437 
z
" clip-path="url(#pf8bf03c720)" style="fill: #c7edbd"/>
   </g>
   <g id="patch_17">
    <path d="M 22.056231 34.658437 
L 22.928106 34.658437 
L 22.928106 20.798437 
L 22.056231 20.798437 
z
" clip-path="url(#pf8bf03c720)" style="fill: #c5ecbb"/>
   </g>
   <g id="patch_18">
    <path d="M 22.928106 34.658437 
L 23.799981 34.658437 
L 23.799981 20.798437 
L 22.928106 20.798437 
z
" clip-path="url(#pf8bf03c720)" style="fill: #c4ebba"/>
   </g>
   <g id="patch_19">
    <path d="M 23.799981 34.658437 
L 24.671856 34.658437 
L 24.671856 20.798437 
L 23.799981 20.798437 
z
" clip-path="url(#pf8bf03c720)" style="fill: #c3ebb9"/>
   </g>
   <g id="patch_20">
    <path d="M 24.671856 34.658437 
L 25.543731 34.658437 
L 25.543731 20.798437 
L 24.671856 20.798437 
z
" clip-path="url(#pf8bf03c720)" style="fill: #c2eab7"/>
   </g>
   <g id="patch_21">
    <path d="M 25.543731 34.658437 
L 26.415606 34.658437 
L 26.415606 20.798437 
L 25.543731 20.798437 
z
" clip-path="url(#pf8bf03c720)" style="fill: #c0e9b6"/>
   </g>
   <g id="patch_22">
    <path d="M 26.415606 34.658437 
L 27.287481 34.658437 
L 27.287481 20.798437 
L 26.415606 20.798437 
z
" clip-path="url(#pf8bf03c720)" style="fill: #bfe8b4"/>
   </g>
   <g id="patch_23">
    <path d="M 27.287481 34.658437 
L 28.159356 34.658437 
L 28.159356 20.798437 
L 27.287481 20.798437 
z
" clip-path="url(#pf8bf03c720)" style="fill: #bee7b3"/>
   </g>
   <g id="patch_24">
    <path d="M 28.159356 34.658437 
L 29.031231 34.658437 
L 29.031231 20.798437 
L 28.159356 20.798437 
z
" clip-path="url(#pf8bf03c720)" style="fill: #bde6b1"/>
   </g>
   <g id="patch_25">
    <path d="M 29.031231 34.658437 
L 29.903106 34.658437 
L 29.903106 20.798437 
L 29.031231 20.798437 
z
" clip-path="url(#pf8bf03c720)" style="fill: #bbe5b0"/>
   </g>
   <g id="patch_26">
    <path d="M 29.903106 34.658437 
L 30.774981 34.658437 
L 30.774981 20.798437 
L 29.903106 20.798437 
z
" clip-path="url(#pf8bf03c720)" style="fill: #bae4af"/>
   </g>
   <g id="patch_27">
    <path d="M 30.774981 34.658437 
L 31.646856 34.658437 
L 31.646856 20.798437 
L 30.774981 20.798437 
z
" clip-path="url(#pf8bf03c720)" style="fill: #b9e4ad"/>
   </g>
   <g id="patch_28">
    <path d="M 31.646856 34.658437 
L 32.518731 34.658437 
L 32.518731 20.798437 
L 31.646856 20.798437 
z
" clip-path="url(#pf8bf03c720)" style="fill: #b8e3ac"/>
   </g>
   <g id="patch_29">
    <path d="M 32.518731 34.658437 
L 33.390606 34.658437 
L 33.390606 20.798437 
L 32.518731 20.798437 
z
" clip-path="url(#pf8bf03c720)" style="fill: #b6e2ab"/>
   </g>
   <g id="patch_30">
    <path d="M 33.390606 34.658437 
L 34.262481 34.658437 
L 34.262481 20.798437 
L 33.390606 20.798437 
z
" clip-path="url(#pf8bf03c720)" style="fill: #b5e1a9"/>
   </g>
   <g id="patch_31">
    <path d="M 34.262481 34.658437 
L 35.134356 34.658437 
L 35.134356 20.798437 
L 34.262481 20.798437 
z
" clip-path="url(#pf8bf03c720)" style="fill: #b4e0a8"/>
   </g>
   <g id="patch_32">
    <path d="M 35.134356 34.658437 
L 36.006231 34.658437 
L 36.006231 20.798437 
L 35.134356 20.798437 
z
" clip-path="url(#pf8bf03c720)" style="fill: #b2dfa6"/>
   </g>
   <g id="patch_33">
    <path d="M 36.006231 34.658437 
L 36.878106 34.658437 
L 36.878106 20.798437 
L 36.006231 20.798437 
z
" clip-path="url(#pf8bf03c720)" style="fill: #b1dea5"/>
   </g>
   <g id="patch_34">
    <path d="M 36.878106 34.658437 
L 37.749981 34.658437 
L 37.749981 20.798437 
L 36.878106 20.798437 
z
" clip-path="url(#pf8bf03c720)" style="fill: #b0dea4"/>
   </g>
   <g id="patch_35">
    <path d="M 37.749981 34.658437 
L 38.621856 34.658437 
L 38.621856 20.798437 
L 37.749981 20.798437 
z
" clip-path="url(#pf8bf03c720)" style="fill: #afdda2"/>
   </g>
   <g id="patch_36">
    <path d="M 38.621856 34.658437 
L 39.493731 34.658437 
L 39.493731 20.798437 
L 38.621856 20.798437 
z
" clip-path="url(#pf8bf03c720)" style="fill: #addca1"/>
   </g>
   <g id="patch_37">
    <path d="M 39.493731 34.658437 
L 40.365606 34.658437 
L 40.365606 20.798437 
L 39.493731 20.798437 
z
" clip-path="url(#pf8bf03c720)" style="fill: #acdba0"/>
   </g>
   <g id="patch_38">
    <path d="M 40.365606 34.658437 
L 41.237481 34.658437 
L 41.237481 20.798437 
L 40.365606 20.798437 
z
" clip-path="url(#pf8bf03c720)" style="fill: #abda9e"/>
   </g>
   <g id="patch_39">
    <path d="M 41.237481 34.658437 
L 42.109356 34.658437 
L 42.109356 20.798437 
L 41.237481 20.798437 
z
" clip-path="url(#pf8bf03c720)" style="fill: #aada9d"/>
   </g>
   <g id="patch_40">
    <path d="M 42.109356 34.658437 
L 42.981231 34.658437 
L 42.981231 20.798437 
L 42.109356 20.798437 
z
" clip-path="url(#pf8bf03c720)" style="fill: #a8d99c"/>
   </g>
   <g id="patch_41">
    <path d="M 42.981231 34.658437 
L 43.853106 34.658437 
L 43.853106 20.798437 
L 42.981231 20.798437 
z
" clip-path="url(#pf8bf03c720)" style="fill: #a7d89a"/>
   </g>
   <g id="patch_42">
    <path d="M 43.853106 34.658437 
L 44.724981 34.658437 
L 44.724981 20.798437 
L 43.853106 20.798437 
z
" clip-path="url(#pf8bf03c720)" style="fill: #a6d799"/>
   </g>
   <g id="patch_43">
    <path d="M 44.724981 34.658437 
L 45.596856 34.658437 
L 45.596856 20.798437 
L 44.724981 20.798437 
z
" clip-path="url(#pf8bf03c720)" style="fill: #a4d698"/>
   </g>
   <g id="patch_44">
    <path d="M 45.596856 34.658437 
L 46.468731 34.658437 
L 46.468731 20.798437 
L 45.596856 20.798437 
z
" clip-path="url(#pf8bf03c720)" style="fill: #a3d596"/>
   </g>
   <g id="patch_45">
    <path d="M 46.468731 34.658437 
L 47.340606 34.658437 
L 47.340606 20.798437 
L 46.468731 20.798437 
z
" clip-path="url(#pf8bf03c720)" style="fill: #a2d595"/>
   </g>
   <g id="patch_46">
    <path d="M 47.340606 34.658437 
L 48.212481 34.658437 
L 48.212481 20.798437 
L 47.340606 20.798437 
z
" clip-path="url(#pf8bf03c720)" style="fill: #a0d494"/>
   </g>
   <g id="patch_47">
    <path d="M 48.212481 34.658437 
L 49.084356 34.658437 
L 49.084356 20.798437 
L 48.212481 20.798437 
z
" clip-path="url(#pf8bf03c720)" style="fill: #9fd392"/>
   </g>
   <g id="patch_48">
    <path d="M 49.084356 34.658437 
L 49.956231 34.658437 
L 49.956231 20.798437 
L 49.084356 20.798437 
z
" clip-path="url(#pf8bf03c720)" style="fill: #9ed291"/>
   </g>
   <g id="patch_49">
    <path d="M 49.956231 34.658437 
L 50.828106 34.658437 
L 50.828106 20.798437 
L 49.956231 20.798437 
z
" clip-path="url(#pf8bf03c720)" style="fill: #9dd190"/>
   </g>
   <g id="patch_50">
    <path d="M 50.828106 34.658437 
L 51.699981 34.658437 
L 51.699981 20.798437 
L 50.828106 20.798437 
z
" clip-path="url(#pf8bf03c720)" style="fill: #9bd18f"/>
   </g>
   <g id="patch_51">
    <path d="M 51.699981 34.658437 
L 52.571856 34.658437 
L 52.571856 20.798437 
L 51.699981 20.798437 
z
" clip-path="url(#pf8bf03c720)" style="fill: #9ad08d"/>
   </g>
   <g id="patch_52">
    <path d="M 52.571856 34.658437 
L 53.443731 34.658437 
L 53.443731 20.798437 
L 52.571856 20.798437 
z
" clip-path="url(#pf8bf03c720)" style="fill: #99cf8c"/>
   </g>
   <g id="patch_53">
    <path d="M 53.443731 34.658437 
L 54.315606 34.658437 
L 54.315606 20.798437 
L 53.443731 20.798437 
z
" clip-path="url(#pf8bf03c720)" style="fill: #97ce8b"/>
   </g>
   <g id="patch_54">
    <path d="M 54.315606 34.658437 
L 55.187481 34.658437 
L 55.187481 20.798437 
L 54.315606 20.798437 
z
" clip-path="url(#pf8bf03c720)" style="fill: #96cd8a"/>
   </g>
   <g id="patch_55">
    <path d="M 55.187481 34.658437 
L 56.059356 34.658437 
L 56.059356 20.798437 
L 55.187481 20.798437 
z
" clip-path="url(#pf8bf03c720)" style="fill: #95cd88"/>
   </g>
   <g id="patch_56">
    <path d="M 56.059356 34.658437 
L 56.931231 34.658437 
L 56.931231 20.798437 
L 56.059356 20.798437 
z
" clip-path="url(#pf8bf03c720)" style="fill: #93cc87"/>
   </g>
   <g id="patch_57">
    <path d="M 56.931231 34.658437 
L 57.803106 34.658437 
L 57.803106 20.798437 
L 56.931231 20.798437 
z
" clip-path="url(#pf8bf03c720)" style="fill: #92cb86"/>
   </g>
   <g id="patch_58">
    <path d="M 57.803106 34.658437 
L 58.674981 34.658437 
L 58.674981 20.798437 
L 57.803106 20.798437 
z
" clip-path="url(#pf8bf03c720)" style="fill: #91ca85"/>
   </g>
   <g id="patch_59">
    <path d="M 58.674981 34.658437 
L 59.546856 34.658437 
L 59.546856 20.798437 
L 58.674981 20.798437 
z
" clip-path="url(#pf8bf03c720)" style="fill: #8fca83"/>
   </g>
   <g id="patch_60">
    <path d="M 59.546856 34.658437 
L 60.418731 34.658437 
L 60.418731 20.798437 
L 59.546856 20.798437 
z
" clip-path="url(#pf8bf03c720)" style="fill: #8ec982"/>
   </g>
   <g id="patch_61">
    <path d="M 60.418731 34.658437 
L 61.290606 34.658437 
L 61.290606 20.798437 
L 60.418731 20.798437 
z
" clip-path="url(#pf8bf03c720)" style="fill: #8cc881"/>
   </g>
   <g id="patch_62">
    <path d="M 61.290606 34.658437 
L 62.162481 34.658437 
L 62.162481 20.798437 
L 61.290606 20.798437 
z
" clip-path="url(#pf8bf03c720)" style="fill: #8bc780"/>
   </g>
   <g id="patch_63">
    <path d="M 62.162481 34.658437 
L 63.034356 34.658437 
L 63.034356 20.798437 
L 62.162481 20.798437 
z
" clip-path="url(#pf8bf03c720)" style="fill: #8ac77e"/>
   </g>
   <g id="patch_64">
    <path d="M 63.034356 34.658437 
L 63.906231 34.658437 
L 63.906231 20.798437 
L 63.034356 20.798437 
z
" clip-path="url(#pf8bf03c720)" style="fill: #88c67d"/>
   </g>
   <g id="patch_65">
    <path d="M 63.906231 34.658437 
L 64.778106 34.658437 
L 64.778106 20.798437 
L 63.906231 20.798437 
z
" clip-path="url(#pf8bf03c720)" style="fill: #87c57c"/>
   </g>
   <g id="patch_66">
    <path d="M 64.778106 34.658437 
L 65.649981 34.658437 
L 65.649981 20.798437 
L 64.778106 20.798437 
z
" clip-path="url(#pf8bf03c720)" style="fill: #85c47b"/>
   </g>
   <g id="patch_67">
    <path d="M 65.649981 34.658437 
L 66.521856 34.658437 
L 66.521856 20.798437 
L 65.649981 20.798437 
z
" clip-path="url(#pf8bf03c720)" style="fill: #84c47a"/>
   </g>
   <g id="patch_68">
    <path d="M 66.521856 34.658437 
L 67.393731 34.658437 
L 67.393731 20.798437 
L 66.521856 20.798437 
z
" clip-path="url(#pf8bf03c720)" style="fill: #83c379"/>
   </g>
   <g id="patch_69">
    <path d="M 67.393731 34.658437 
L 68.265606 34.658437 
L 68.265606 20.798437 
L 67.393731 20.798437 
z
" clip-path="url(#pf8bf03c720)" style="fill: #81c277"/>
   </g>
   <g id="patch_70">
    <path d="M 68.265606 34.658437 
L 69.137481 34.658437 
L 69.137481 20.798437 
L 68.265606 20.798437 
z
" clip-path="url(#pf8bf03c720)" style="fill: #80c176"/>
   </g>
   <g id="patch_71">
    <path d="M 69.137481 34.658437 
L 70.009356 34.658437 
L 70.009356 20.798437 
L 69.137481 20.798437 
z
" clip-path="url(#pf8bf03c720)" style="fill: #7ec175"/>
   </g>
   <g id="patch_72">
    <path d="M 70.009356 34.658437 
L 70.881231 34.658437 
L 70.881231 20.798437 
L 70.009356 20.798437 
z
" clip-path="url(#pf8bf03c720)" style="fill: #7dc074"/>
   </g>
   <g id="patch_73">
    <path d="M 70.881231 34.658437 
L 71.753106 34.658437 
L 71.753106 20.798437 
L 70.881231 20.798437 
z
" clip-path="url(#pf8bf03c720)" style="fill: #7bbf73"/>
   </g>
   <g id="patch_74">
    <path d="M 71.753106 34.658437 
L 72.624981 34.658437 
L 72.624981 20.798437 
L 71.753106 20.798437 
z
" clip-path="url(#pf8bf03c720)" style="fill: #7abe72"/>
   </g>
   <g id="patch_75">
    <path d="M 72.624981 34.658437 
L 73.496856 34.658437 
L 73.496856 20.798437 
L 72.624981 20.798437 
z
" clip-path="url(#pf8bf03c720)" style="fill: #78be71"/>
   </g>
   <g id="patch_76">
    <path d="M 73.496856 34.658437 
L 74.368731 34.658437 
L 74.368731 20.798437 
L 73.496856 20.798437 
z
" clip-path="url(#pf8bf03c720)" style="fill: #77bd6f"/>
   </g>
   <g id="patch_77">
    <path d="M 74.368731 34.658437 
L 75.240606 34.658437 
L 75.240606 20.798437 
L 74.368731 20.798437 
z
" clip-path="url(#pf8bf03c720)" style="fill: #75bc6e"/>
   </g>
   <g id="patch_78">
    <path d="M 75.240606 34.658437 
L 76.112481 34.658437 
L 76.112481 20.798437 
L 75.240606 20.798437 
z
" clip-path="url(#pf8bf03c720)" style="fill: #74bb6d"/>
   </g>
   <g id="patch_79">
    <path d="M 76.112481 34.658437 
L 76.984356 34.658437 
L 76.984356 20.798437 
L 76.112481 20.798437 
z
" clip-path="url(#pf8bf03c720)" style="fill: #72bb6c"/>
   </g>
   <g id="patch_80">
    <path d="M 76.984356 34.658437 
L 77.856231 34.658437 
L 77.856231 20.798437 
L 76.984356 20.798437 
z
" clip-path="url(#pf8bf03c720)" style="fill: #71ba6b"/>
   </g>
   <g id="patch_81">
    <path d="M 77.856231 34.658437 
L 78.728106 34.658437 
L 78.728106 20.798437 
L 77.856231 20.798437 
z
" clip-path="url(#pf8bf03c720)" style="fill: #6fb96a"/>
   </g>
   <g id="patch_82">
    <path d="M 78.728106 34.658437 
L 79.599981 34.658437 
L 79.599981 20.798437 
L 78.728106 20.798437 
z
" clip-path="url(#pf8bf03c720)" style="fill: #6eb969"/>
   </g>
   <g id="patch_83">
    <path d="M 79.599981 34.658437 
L 80.471856 34.658437 
L 80.471856 20.798437 
L 79.599981 20.798437 
z
" clip-path="url(#pf8bf03c720)" style="fill: #6cb868"/>
   </g>
   <g id="patch_84">
    <path d="M 80.471856 34.658437 
L 81.343731 34.658437 
L 81.343731 20.798437 
L 80.471856 20.798437 
z
" clip-path="url(#pf8bf03c720)" style="fill: #6bb767"/>
   </g>
   <g id="patch_85">
    <path d="M 81.343731 34.658437 
L 82.215606 34.658437 
L 82.215606 20.798437 
L 81.343731 20.798437 
z
" clip-path="url(#pf8bf03c720)" style="fill: #69b666"/>
   </g>
   <g id="patch_86">
    <path d="M 82.215606 34.658437 
L 83.087481 34.658437 
L 83.087481 20.798437 
L 82.215606 20.798437 
z
" clip-path="url(#pf8bf03c720)" style="fill: #67b665"/>
   </g>
   <g id="patch_87">
    <path d="M 83.087481 34.658437 
L 83.959356 34.658437 
L 83.959356 20.798437 
L 83.087481 20.798437 
z
" clip-path="url(#pf8bf03c720)" style="fill: #66b564"/>
   </g>
   <g id="patch_88">
    <path d="M 83.959356 34.658437 
L 84.831231 34.658437 
L 84.831231 20.798437 
L 83.959356 20.798437 
z
" clip-path="url(#pf8bf03c720)" style="fill: #64b463"/>
   </g>
   <g id="patch_89">
    <path d="M 84.831231 34.658437 
L 85.703106 34.658437 
L 85.703106 20.798437 
L 84.831231 20.798437 
z
" clip-path="url(#pf8bf03c720)" style="fill: #62b462"/>
   </g>
   <g id="patch_90">
    <path d="M 85.703106 34.658437 
L 86.574981 34.658437 
L 86.574981 20.798437 
L 85.703106 20.798437 
z
" clip-path="url(#pf8bf03c720)" style="fill: #61b361"/>
   </g>
   <g id="patch_91">
    <path d="M 86.574981 34.658437 
L 87.446856 34.658437 
L 87.446856 20.798437 
L 86.574981 20.798437 
z
" clip-path="url(#pf8bf03c720)" style="fill: #5fb260"/>
   </g>
   <g id="patch_92">
    <path d="M 87.446856 34.658437 
L 88.318731 34.658437 
L 88.318731 20.798437 
L 87.446856 20.798437 
z
" clip-path="url(#pf8bf03c720)" style="fill: #5db25f"/>
   </g>
   <g id="patch_93">
    <path d="M 88.318731 34.658437 
L 89.190606 34.658437 
L 89.190606 20.798437 
L 88.318731 20.798437 
z
" clip-path="url(#pf8bf03c720)" style="fill: #5bb15e"/>
   </g>
   <g id="patch_94">
    <path d="M 89.190606 34.658437 
L 90.062481 34.658437 
L 90.062481 20.798437 
L 89.190606 20.798437 
z
" clip-path="url(#pf8bf03c720)" style="fill: #5ab05d"/>
   </g>
   <g id="patch_95">
    <path d="M 90.062481 34.658437 
L 90.934356 34.658437 
L 90.934356 20.798437 
L 90.062481 20.798437 
z
" clip-path="url(#pf8bf03c720)" style="fill: #58af5d"/>
   </g>
   <g id="patch_96">
    <path d="M 90.934356 34.658437 
L 91.806231 34.658437 
L 91.806231 20.798437 
L 90.934356 20.798437 
z
" clip-path="url(#pf8bf03c720)" style="fill: #56af5c"/>
   </g>
   <g id="patch_97">
    <path d="M 91.806231 34.658437 
L 92.678106 34.658437 
L 92.678106 20.798437 
L 91.806231 20.798437 
z
" clip-path="url(#pf8bf03c720)" style="fill: #54ae5b"/>
   </g>
   <g id="patch_98">
    <path d="M 92.678106 34.658437 
L 93.549981 34.658437 
L 93.549981 20.798437 
L 92.678106 20.798437 
z
" clip-path="url(#pf8bf03c720)" style="fill: #52ad5a"/>
   </g>
   <g id="patch_99">
    <path d="M 93.549981 34.658437 
L 94.421856 34.658437 
L 94.421856 20.798437 
L 93.549981 20.798437 
z
" clip-path="url(#pf8bf03c720)" style="fill: #50ad59"/>
   </g>
   <g id="patch_100">
    <path d="M 94.421856 34.658437 
L 95.293731 34.658437 
L 95.293731 20.798437 
L 94.421856 20.798437 
z
" clip-path="url(#pf8bf03c720)" style="fill: #4eac59"/>
   </g>
   <g id="patch_101">
    <path d="M 95.293731 34.658437 
L 96.165606 34.658437 
L 96.165606 20.798437 
L 95.293731 20.798437 
z
" clip-path="url(#pf8bf03c720)" style="fill: #4cab58"/>
   </g>
   <g id="patch_102">
    <path d="M 96.165606 34.658437 
L 97.037481 34.658437 
L 97.037481 20.798437 
L 96.165606 20.798437 
z
" clip-path="url(#pf8bf03c720)" style="fill: #4aab57"/>
   </g>
   <g id="patch_103">
    <path d="M 97.037481 34.658437 
L 97.909356 34.658437 
L 97.909356 20.798437 
L 97.037481 20.798437 
z
" clip-path="url(#pf8bf03c720)" style="fill: #48aa57"/>
   </g>
   <g id="patch_104">
    <path d="M 97.909356 34.658437 
L 98.781231 34.658437 
L 98.781231 20.798437 
L 97.909356 20.798437 
z
" clip-path="url(#pf8bf03c720)" style="fill: #46a956"/>
   </g>
   <g id="patch_105">
    <path d="M 98.781231 34.658437 
L 99.653106 34.658437 
L 99.653106 20.798437 
L 98.781231 20.798437 
z
" clip-path="url(#pf8bf03c720)" style="fill: #44a855"/>
   </g>
   <g id="patch_106">
    <path d="M 99.653106 34.658437 
L 100.524981 34.658437 
L 100.524981 20.798437 
L 99.653106 20.798437 
z
" clip-path="url(#pf8bf03c720)" style="fill: #42a855"/>
   </g>
   <g id="patch_107">
    <path d="M 100.524981 34.658437 
L 101.396856 34.658437 
L 101.396856 20.798437 
L 100.524981 20.798437 
z
" clip-path="url(#pf8bf03c720)" style="fill: #3fa754"/>
   </g>
   <g id="patch_108">
    <path d="M 101.396856 34.658437 
L 102.268731 34.658437 
L 102.268731 20.798437 
L 101.396856 20.798437 
z
" clip-path="url(#pf8bf03c720)" style="fill: #3da654"/>
   </g>
   <g id="patch_109">
    <path d="M 102.268731 34.658437 
L 103.140606 34.658437 
L 103.140606 20.798437 
L 102.268731 20.798437 
z
" clip-path="url(#pf8bf03c720)" style="fill: #3ba654"/>
   </g>
   <g id="patch_110">
    <path d="M 103.140606 34.658437 
L 104.012481 34.658437 
L 104.012481 20.798437 
L 103.140606 20.798437 
z
" clip-path="url(#pf8bf03c720)" style="fill: #39a553"/>
   </g>
   <g id="patch_111">
    <path d="M 104.012481 34.658437 
L 104.884356 34.658437 
L 104.884356 20.798437 
L 104.012481 20.798437 
z
" clip-path="url(#pf8bf03c720)" style="fill: #37a453"/>
   </g>
   <g id="patch_112">
    <path d="M 104.884356 34.658437 
L 105.756231 34.658437 
L 105.756231 20.798437 
L 104.884356 20.798437 
z
" clip-path="url(#pf8bf03c720)" style="fill: #34a353"/>
   </g>
   <g id="patch_113">
    <path d="M 105.756231 34.658437 
L 106.628106 34.658437 
L 106.628106 20.798437 
L 105.756231 20.798437 
z
" clip-path="url(#pf8bf03c720)" style="fill: #32a352"/>
   </g>
   <g id="patch_114">
    <path d="M 106.628106 34.658437 
L 107.499981 34.658437 
L 107.499981 20.798437 
L 106.628106 20.798437 
z
" clip-path="url(#pf8bf03c720)" style="fill: #30a252"/>
   </g>
   <g id="patch_115">
    <path d="M 107.499981 34.658437 
L 108.371856 34.658437 
L 108.371856 20.798437 
L 107.499981 20.798437 
z
" clip-path="url(#pf8bf03c720)" style="fill: #2ea152"/>
   </g>
   <g id="patch_116">
    <path d="M 108.371856 34.658437 
L 109.243731 34.658437 
L 109.243731 20.798437 
L 108.371856 20.798437 
z
" clip-path="url(#pf8bf03c720)" style="fill: #2ca052"/>
   </g>
   <g id="patch_117">
    <path d="M 109.243731 34.658437 
L 110.115606 34.658437 
L 110.115606 20.798437 
L 109.243731 20.798437 
z
" clip-path="url(#pf8bf03c720)" style="fill: #2aa052"/>
   </g>
   <g id="patch_118">
    <path d="M 110.115606 34.658437 
L 110.987481 34.658437 
L 110.987481 20.798437 
L 110.115606 20.798437 
z
" clip-path="url(#pf8bf03c720)" style="fill: #289f51"/>
   </g>
   <g id="patch_119">
    <path d="M 110.987481 34.658437 
L 111.859356 34.658437 
L 111.859356 20.798437 
L 110.987481 20.798437 
z
" clip-path="url(#pf8bf03c720)" style="fill: #269e51"/>
   </g>
   <g id="patch_120">
    <path d="M 111.859356 34.658437 
L 112.731231 34.658437 
L 112.731231 20.798437 
L 111.859356 20.798437 
z
" clip-path="url(#pf8bf03c720)" style="fill: #249d51"/>
   </g>
   <g id="patch_121">
    <path d="M 112.731231 34.658437 
L 113.603106 34.658437 
L 113.603106 20.798437 
L 112.731231 20.798437 
z
" clip-path="url(#pf8bf03c720)" style="fill: #229c51"/>
   </g>
   <g id="patch_122">
    <path d="M 113.603106 34.658437 
L 114.474981 34.658437 
L 114.474981 20.798437 
L 113.603106 20.798437 
z
" clip-path="url(#pf8bf03c720)" style="fill: #209c51"/>
   </g>
   <g id="patch_123">
    <path d="M 114.474981 34.658437 
L 115.346856 34.658437 
L 115.346856 20.798437 
L 114.474981 20.798437 
z
" clip-path="url(#pf8bf03c720)" style="fill: #1e9b51"/>
   </g>
   <g id="patch_124">
    <path d="M 115.346856 34.658437 
L 116.218731 34.658437 
L 116.218731 20.798437 
L 115.346856 20.798437 
z
" clip-path="url(#pf8bf03c720)" style="fill: #1c9a51"/>
   </g>
   <g id="patch_125">
    <path d="M 116.218731 34.658437 
L 117.090606 34.658437 
L 117.090606 20.798437 
L 116.218731 20.798437 
z
" clip-path="url(#pf8bf03c720)" style="fill: #1b9951"/>
   </g>
   <g id="patch_126">
    <path d="M 117.090606 34.658437 
L 117.962481 34.658437 
L 117.962481 20.798437 
L 117.090606 20.798437 
z
" clip-path="url(#pf8bf03c720)" style="fill: #199851"/>
   </g>
   <g id="patch_127">
    <path d="M 117.962481 34.658437 
L 118.834356 34.658437 
L 118.834356 20.798437 
L 117.962481 20.798437 
z
" clip-path="url(#pf8bf03c720)" style="fill: #189750"/>
   </g>
   <g id="patch_128">
    <path d="M 118.834356 34.658437 
L 119.706231 34.658437 
L 119.706231 20.798437 
L 118.834356 20.798437 
z
" clip-path="url(#pf8bf03c720)" style="fill: #169650"/>
   </g>
   <g id="patch_129">
    <path d="M 119.706231 34.658437 
L 120.578106 34.658437 
L 120.578106 20.798437 
L 119.706231 20.798437 
z
" clip-path="url(#pf8bf03c720)" style="fill: #159650"/>
   </g>
   <g id="patch_130">
    <path d="M 120.578106 34.658437 
L 121.449981 34.658437 
L 121.449981 20.798437 
L 120.578106 20.798437 
z
" clip-path="url(#pf8bf03c720)" style="fill: #139550"/>
   </g>
   <g id="patch_131">
    <path d="M 121.449981 34.658437 
L 122.321856 34.658437 
L 122.321856 20.798437 
L 121.449981 20.798437 
z
" clip-path="url(#pf8bf03c720)" style="fill: #129450"/>
   </g>
   <g id="patch_132">
    <path d="M 122.321856 34.658437 
L 123.193731 34.658437 
L 123.193731 20.798437 
L 122.321856 20.798437 
z
" clip-path="url(#pf8bf03c720)" style="fill: #109350"/>
   </g>
   <g id="patch_133">
    <path d="M 123.193731 34.658437 
L 124.065606 34.658437 
L 124.065606 20.798437 
L 123.193731 20.798437 
z
" clip-path="url(#pf8bf03c720)" style="fill: #0f9250"/>
   </g>
   <g id="patch_134">
    <path d="M 124.065606 34.658437 
L 124.937481 34.658437 
L 124.937481 20.798437 
L 124.065606 20.798437 
z
" clip-path="url(#pf8bf03c720)" style="fill: #0e9150"/>
   </g>
   <g id="patch_135">
    <path d="M 124.937481 34.658437 
L 125.809356 34.658437 
L 125.809356 20.798437 
L 124.937481 20.798437 
z
" clip-path="url(#pf8bf03c720)" style="fill: #0d904f"/>
   </g>
   <g id="patch_136">
    <path d="M 125.809356 34.658437 
L 126.681231 34.658437 
L 126.681231 20.798437 
L 125.809356 20.798437 
z
" clip-path="url(#pf8bf03c720)" style="fill: #0c8f4f"/>
   </g>
   <g id="patch_137">
    <path d="M 126.681231 34.658437 
L 127.553106 34.658437 
L 127.553106 20.798437 
L 126.681231 20.798437 
z
" clip-path="url(#pf8bf03c720)" style="fill: #0b8f4f"/>
   </g>
   <g id="patch_138">
    <path d="M 127.553106 34.658437 
L 128.424981 34.658437 
L 128.424981 20.798437 
L 127.553106 20.798437 
z
" clip-path="url(#pf8bf03c720)" style="fill: #0a8e4f"/>
   </g>
   <g id="patch_139">
    <path d="M 128.424981 34.658437 
L 129.296856 34.658437 
L 129.296856 20.798437 
L 128.424981 20.798437 
z
" clip-path="url(#pf8bf03c720)" style="fill: #098d4f"/>
   </g>
   <g id="patch_140">
    <path d="M 129.296856 34.658437 
L 130.168731 34.658437 
L 130.168731 20.798437 
L 129.296856 20.798437 
z
" clip-path="url(#pf8bf03c720)" style="fill: #098c4f"/>
   </g>
   <g id="patch_141">
    <path d="M 130.168731 34.658437 
L 131.040606 34.658437 
L 131.040606 20.798437 
L 130.168731 20.798437 
z
" clip-path="url(#pf8bf03c720)" style="fill: #088b4e"/>
   </g>
   <g id="patch_142">
    <path d="M 131.040606 34.658437 
L 131.912481 34.658437 
L 131.912481 20.798437 
L 131.040606 20.798437 
z
" clip-path="url(#pf8bf03c720)" style="fill: #088a4e"/>
   </g>
   <g id="patch_143">
    <path d="M 131.912481 34.658437 
L 132.784356 34.658437 
L 132.784356 20.798437 
L 131.912481 20.798437 
z
" clip-path="url(#pf8bf03c720)" style="fill: #07894e"/>
   </g>
   <g id="patch_144">
    <path d="M 132.784356 34.658437 
L 133.656231 34.658437 
L 133.656231 20.798437 
L 132.784356 20.798437 
z
" clip-path="url(#pf8bf03c720)" style="fill: #07884e"/>
   </g>
   <g id="patch_145">
    <path d="M 133.656231 34.658437 
L 134.528106 34.658437 
L 134.528106 20.798437 
L 133.656231 20.798437 
z
" clip-path="url(#pf8bf03c720)" style="fill: #07874d"/>
   </g>
   <g id="patch_146">
    <path d="M 134.528106 34.658437 
L 135.399981 34.658437 
L 135.399981 20.798437 
L 134.528106 20.798437 
z
" clip-path="url(#pf8bf03c720)" style="fill: #07864d"/>
   </g>
   <g id="patch_147">
    <path d="M 135.399981 34.658437 
L 136.271856 34.658437 
L 136.271856 20.798437 
L 135.399981 20.798437 
z
" clip-path="url(#pf8bf03c720)" style="fill: #07864d"/>
   </g>
   <g id="patch_148">
    <path d="M 136.271856 34.658437 
L 137.143731 34.658437 
L 137.143731 20.798437 
L 136.271856 20.798437 
z
" clip-path="url(#pf8bf03c720)" style="fill: #07854d"/>
   </g>
   <g id="patch_149">
    <path d="M 137.143731 34.658437 
L 138.015606 34.658437 
L 138.015606 20.798437 
L 137.143731 20.798437 
z
" clip-path="url(#pf8bf03c720)" style="fill: #07844d"/>
   </g>
   <g id="patch_150">
    <path d="M 138.015606 34.658437 
L 138.887481 34.658437 
L 138.887481 20.798437 
L 138.015606 20.798437 
z
" clip-path="url(#pf8bf03c720)" style="fill: #07834c"/>
   </g>
   <g id="patch_151">
    <path d="M 138.887481 34.658437 
L 139.759356 34.658437 
L 139.759356 20.798437 
L 138.887481 20.798437 
z
" clip-path="url(#pf8bf03c720)" style="fill: #07824c"/>
   </g>
   <g id="patch_152">
    <path d="M 139.759356 34.658437 
L 140.631231 34.658437 
L 140.631231 20.798437 
L 139.759356 20.798437 
z
" clip-path="url(#pf8bf03c720)" style="fill: #08814c"/>
   </g>
   <g id="patch_153">
    <path d="M 140.631231 34.658437 
L 141.503106 34.658437 
L 141.503106 20.798437 
L 140.631231 20.798437 
z
" clip-path="url(#pf8bf03c720)" style="fill: #08804b"/>
   </g>
   <g id="patch_154">
    <path d="M 141.503106 34.658437 
L 142.374981 34.658437 
L 142.374981 20.798437 
L 141.503106 20.798437 
z
" clip-path="url(#pf8bf03c720)" style="fill: #087f4b"/>
   </g>
   <g id="patch_155">
    <path d="M 142.374981 34.658437 
L 143.246856 34.658437 
L 143.246856 20.798437 
L 142.374981 20.798437 
z
" clip-path="url(#pf8bf03c720)" style="fill: #097e4b"/>
   </g>
   <g id="patch_156">
    <path d="M 143.246856 34.658437 
L 144.118731 34.658437 
L 144.118731 20.798437 
L 143.246856 20.798437 
z
" clip-path="url(#pf8bf03c720)" style="fill: #097d4b"/>
   </g>
   <g id="patch_157">
    <path d="M 144.118731 34.658437 
L 144.990606 34.658437 
L 144.990606 20.798437 
L 144.118731 20.798437 
z
" clip-path="url(#pf8bf03c720)" style="fill: #0a7c4a"/>
   </g>
   <g id="patch_158">
    <path d="M 144.990606 34.658437 
L 145.862481 34.658437 
L 145.862481 20.798437 
L 144.990606 20.798437 
z
" clip-path="url(#pf8bf03c720)" style="fill: #0a7c4a"/>
   </g>
   <g id="patch_159">
    <path d="M 145.862481 34.658437 
L 146.734356 34.658437 
L 146.734356 20.798437 
L 145.862481 20.798437 
z
" clip-path="url(#pf8bf03c720)" style="fill: #0b7b4a"/>
   </g>
   <g id="patch_160">
    <path d="M 146.734356 34.658437 
L 147.606231 34.658437 
L 147.606231 20.798437 
L 146.734356 20.798437 
z
" clip-path="url(#pf8bf03c720)" style="fill: #0b7a49"/>
   </g>
   <g id="patch_161">
    <path d="M 147.606231 34.658437 
L 148.478106 34.658437 
L 148.478106 20.798437 
L 147.606231 20.798437 
z
" clip-path="url(#pf8bf03c720)" style="fill: #0c7949"/>
   </g>
   <g id="patch_162">
    <path d="M 148.478106 34.658437 
L 149.349981 34.658437 
L 149.349981 20.798437 
L 148.478106 20.798437 
z
" clip-path="url(#pf8bf03c720)" style="fill: #0c7849"/>
   </g>
   <g id="patch_163">
    <path d="M 149.349981 34.658437 
L 150.221856 34.658437 
L 150.221856 20.798437 
L 149.349981 20.798437 
z
" clip-path="url(#pf8bf03c720)" style="fill: #0d7748"/>
   </g>
   <g id="patch_164">
    <path d="M 150.221856 34.658437 
L 151.093731 34.658437 
L 151.093731 20.798437 
L 150.221856 20.798437 
z
" clip-path="url(#pf8bf03c720)" style="fill: #0d7648"/>
   </g>
   <g id="patch_165">
    <path d="M 151.093731 34.658437 
L 151.965606 34.658437 
L 151.965606 20.798437 
L 151.093731 20.798437 
z
" clip-path="url(#pf8bf03c720)" style="fill: #0e7548"/>
   </g>
   <g id="patch_166">
    <path d="M 151.965606 34.658437 
L 152.837481 34.658437 
L 152.837481 20.798437 
L 151.965606 20.798437 
z
" clip-path="url(#pf8bf03c720)" style="fill: #0e7447"/>
   </g>
   <g id="patch_167">
    <path d="M 152.837481 34.658437 
L 153.709356 34.658437 
L 153.709356 20.798437 
L 152.837481 20.798437 
z
" clip-path="url(#pf8bf03c720)" style="fill: #0f7347"/>
   </g>
   <g id="patch_168">
    <path d="M 153.709356 34.658437 
L 154.581231 34.658437 
L 154.581231 20.798437 
L 153.709356 20.798437 
z
" clip-path="url(#pf8bf03c720)" style="fill: #0f7347"/>
   </g>
   <g id="patch_169">
    <path d="M 154.581231 34.658437 
L 155.453106 34.658437 
L 155.453106 20.798437 
L 154.581231 20.798437 
z
" clip-path="url(#pf8bf03c720)" style="fill: #107246"/>
   </g>
   <g id="patch_170">
    <path d="M 155.453106 34.658437 
L 156.324981 34.658437 
L 156.324981 20.798437 
L 155.453106 20.798437 
z
" clip-path="url(#pf8bf03c720)" style="fill: #107146"/>
   </g>
   <g id="patch_171">
    <path d="M 156.324981 34.658437 
L 157.196856 34.658437 
L 157.196856 20.798437 
L 156.324981 20.798437 
z
" clip-path="url(#pf8bf03c720)" style="fill: #117045"/>
   </g>
   <g id="patch_172">
    <path d="M 157.196856 34.658437 
L 158.068731 34.658437 
L 158.068731 20.798437 
L 157.196856 20.798437 
z
" clip-path="url(#pf8bf03c720)" style="fill: #116f45"/>
   </g>
   <g id="patch_173">
    <path d="M 158.068731 34.658437 
L 158.940606 34.658437 
L 158.940606 20.798437 
L 158.068731 20.798437 
z
" clip-path="url(#pf8bf03c720)" style="fill: #126e45"/>
   </g>
   <g id="patch_174">
    <path d="M 158.940606 34.658437 
L 159.812481 34.658437 
L 159.812481 20.798437 
L 158.940606 20.798437 
z
" clip-path="url(#pf8bf03c720)" style="fill: #126d44"/>
   </g>
   <g id="patch_175">
    <path d="M 159.812481 34.658437 
L 160.684356 34.658437 
L 160.684356 20.798437 
L 159.812481 20.798437 
z
" clip-path="url(#pf8bf03c720)" style="fill: #126c44"/>
   </g>
   <g id="patch_176">
    <path d="M 160.684356 34.658437 
L 161.556231 34.658437 
L 161.556231 20.798437 
L 160.684356 20.798437 
z
" clip-path="url(#pf8bf03c720)" style="fill: #136b43"/>
   </g>
   <g id="patch_177">
    <path d="M 161.556231 34.658437 
L 162.428106 34.658437 
L 162.428106 20.798437 
L 161.556231 20.798437 
z
" clip-path="url(#pf8bf03c720)" style="fill: #136a43"/>
   </g>
   <g id="patch_178">
    <path d="M 162.428106 34.658437 
L 163.299981 34.658437 
L 163.299981 20.798437 
L 162.428106 20.798437 
z
" clip-path="url(#pf8bf03c720)" style="fill: #146a43"/>
   </g>
   <g id="patch_179">
    <path d="M 163.299981 34.658437 
L 164.171856 34.658437 
L 164.171856 20.798437 
L 163.299981 20.798437 
z
" clip-path="url(#pf8bf03c720)" style="fill: #146942"/>
   </g>
   <g id="patch_180">
    <path d="M 164.171856 34.658437 
L 165.043731 34.658437 
L 165.043731 20.798437 
L 164.171856 20.798437 
z
" clip-path="url(#pf8bf03c720)" style="fill: #146842"/>
   </g>
   <g id="patch_181">
    <path d="M 165.043731 34.658437 
L 165.915606 34.658437 
L 165.915606 20.798437 
L 165.043731 20.798437 
z
" clip-path="url(#pf8bf03c720)" style="fill: #156741"/>
   </g>
   <g id="patch_182">
    <path d="M 165.915606 34.658437 
L 166.787481 34.658437 
L 166.787481 20.798437 
L 165.915606 20.798437 
z
" clip-path="url(#pf8bf03c720)" style="fill: #156641"/>
   </g>
   <g id="patch_183">
    <path d="M 166.787481 34.658437 
L 167.659356 34.658437 
L 167.659356 20.798437 
L 166.787481 20.798437 
z
" clip-path="url(#pf8bf03c720)" style="fill: #156540"/>
   </g>
   <g id="patch_184">
    <path d="M 167.659356 34.658437 
L 168.531231 34.658437 
L 168.531231 20.798437 
L 167.659356 20.798437 
z
" clip-path="url(#pf8bf03c720)" style="fill: #166440"/>
   </g>
   <g id="patch_185">
    <path d="M 168.531231 34.658437 
L 169.403106 34.658437 
L 169.403106 20.798437 
L 168.531231 20.798437 
z
" clip-path="url(#pf8bf03c720)" style="fill: #166340"/>
   </g>
   <g id="patch_186">
    <path d="M 169.403106 34.658437 
L 170.274981 34.658437 
L 170.274981 20.798437 
L 169.403106 20.798437 
z
" clip-path="url(#pf8bf03c720)" style="fill: #16623f"/>
   </g>
   <g id="patch_187">
    <path d="M 170.274981 34.658437 
L 171.146856 34.658437 
L 171.146856 20.798437 
L 170.274981 20.798437 
z
" clip-path="url(#pf8bf03c720)" style="fill: #17623f"/>
   </g>
   <g id="patch_188">
    <path d="M 171.146856 34.658437 
L 172.018731 34.658437 
L 172.018731 20.798437 
L 171.146856 20.798437 
z
" clip-path="url(#pf8bf03c720)" style="fill: #17613e"/>
   </g>
   <g id="patch_189">
    <path d="M 172.018731 34.658437 
L 172.890606 34.658437 
L 172.890606 20.798437 
L 172.018731 20.798437 
z
" clip-path="url(#pf8bf03c720)" style="fill: #17603e"/>
   </g>
   <g id="patch_190">
    <path d="M 172.890606 34.658437 
L 173.762481 34.658437 
L 173.762481 20.798437 
L 172.890606 20.798437 
z
" clip-path="url(#pf8bf03c720)" style="fill: #175f3d"/>
   </g>
   <g id="patch_191">
    <path d="M 173.762481 34.658437 
L 174.634356 34.658437 
L 174.634356 20.798437 
L 173.762481 20.798437 
z
" clip-path="url(#pf8bf03c720)" style="fill: #185e3d"/>
   </g>
   <g id="patch_192">
    <path d="M 174.634356 34.658437 
L 175.506231 34.658437 
L 175.506231 20.798437 
L 174.634356 20.798437 
z
" clip-path="url(#pf8bf03c720)" style="fill: #185d3c"/>
   </g>
   <g id="patch_193">
    <path d="M 175.506231 34.658437 
L 176.378106 34.658437 
L 176.378106 20.798437 
L 175.506231 20.798437 
z
" clip-path="url(#pf8bf03c720)" style="fill: #185c3c"/>
   </g>
   <g id="patch_194">
    <path d="M 176.378106 34.658437 
L 177.249981 34.658437 
L 177.249981 20.798437 
L 176.378106 20.798437 
z
" clip-path="url(#pf8bf03c720)" style="fill: #185b3b"/>
   </g>
   <g id="patch_195">
    <path d="M 177.249981 34.658437 
L 178.121856 34.658437 
L 178.121856 20.798437 
L 177.249981 20.798437 
z
" clip-path="url(#pf8bf03c720)" style="fill: #185b3b"/>
   </g>
   <g id="patch_196">
    <path d="M 178.121856 34.658437 
L 178.993731 34.658437 
L 178.993731 20.798437 
L 178.121856 20.798437 
z
" clip-path="url(#pf8bf03c720)" style="fill: #195a3a"/>
   </g>
   <g id="patch_197">
    <path d="M 178.993731 34.658437 
L 179.865606 34.658437 
L 179.865606 20.798437 
L 178.993731 20.798437 
z
" clip-path="url(#pf8bf03c720)" style="fill: #19593a"/>
   </g>
   <g id="patch_198">
    <path d="M 179.865606 34.658437 
L 180.737481 34.658437 
L 180.737481 20.798437 
L 179.865606 20.798437 
z
" clip-path="url(#pf8bf03c720)" style="fill: #195839"/>
   </g>
   <g id="patch_199">
    <path d="M 180.737481 34.658437 
L 181.609356 34.658437 
L 181.609356 20.798437 
L 180.737481 20.798437 
z
" clip-path="url(#pf8bf03c720)" style="fill: #195739"/>
   </g>
   <g id="patch_200">
    <path d="M 181.609356 34.658437 
L 182.481231 34.658437 
L 182.481231 20.798437 
L 181.609356 20.798437 
z
" clip-path="url(#pf8bf03c720)" style="fill: #195638"/>
   </g>
   <g id="patch_201">
    <path d="M 182.481231 34.658437 
L 183.353106 34.658437 
L 183.353106 20.798437 
L 182.481231 20.798437 
z
" clip-path="url(#pf8bf03c720)" style="fill: #195538"/>
   </g>
   <g id="patch_202">
    <path d="M 183.353106 34.658437 
L 184.224981 34.658437 
L 184.224981 20.798437 
L 183.353106 20.798437 
z
" clip-path="url(#pf8bf03c720)" style="fill: #195437"/>
   </g>
   <g id="patch_203">
    <path d="M 184.224981 34.658437 
L 185.096856 34.658437 
L 185.096856 20.798437 
L 184.224981 20.798437 
z
" clip-path="url(#pf8bf03c720)" style="fill: #195437"/>
   </g>
   <g id="patch_204">
    <path d="M 185.096856 34.658437 
L 185.968731 34.658437 
L 185.968731 20.798437 
L 185.096856 20.798437 
z
" clip-path="url(#pf8bf03c720)" style="fill: #1a5336"/>
   </g>
   <g id="patch_205">
    <path d="M 185.968731 34.658437 
L 186.840606 34.658437 
L 186.840606 20.798437 
L 185.968731 20.798437 
z
" clip-path="url(#pf8bf03c720)" style="fill: #1a5235"/>
   </g>
   <g id="patch_206">
    <path d="M 186.840606 34.658437 
L 187.712481 34.658437 
L 187.712481 20.798437 
L 186.840606 20.798437 
z
" clip-path="url(#pf8bf03c720)" style="fill: #1a5135"/>
   </g>
   <g id="patch_207">
    <path d="M 187.712481 34.658437 
L 188.584356 34.658437 
L 188.584356 20.798437 
L 187.712481 20.798437 
z
" clip-path="url(#pf8bf03c720)" style="fill: #1a5034"/>
   </g>
   <g id="patch_208">
    <path d="M 188.584356 34.658437 
L 189.456231 34.658437 
L 189.456231 20.798437 
L 188.584356 20.798437 
z
" clip-path="url(#pf8bf03c720)" style="fill: #1a4f34"/>
   </g>
   <g id="patch_209">
    <path d="M 189.456231 34.658437 
L 190.328106 34.658437 
L 190.328106 20.798437 
L 189.456231 20.798437 
z
" clip-path="url(#pf8bf03c720)" style="fill: #1a4e33"/>
   </g>
   <g id="patch_210">
    <path d="M 190.328106 34.658437 
L 191.199981 34.658437 
L 191.199981 20.798437 
L 190.328106 20.798437 
z
" clip-path="url(#pf8bf03c720)" style="fill: #1a4d33"/>
   </g>
   <g id="patch_211">
    <path d="M 191.199981 34.658437 
L 192.071856 34.658437 
L 192.071856 20.798437 
L 191.199981 20.798437 
z
" clip-path="url(#pf8bf03c720)" style="fill: #1a4d32"/>
   </g>
   <g id="patch_212">
    <path d="M 192.071856 34.658437 
L 192.943731 34.658437 
L 192.943731 20.798437 
L 192.071856 20.798437 
z
" clip-path="url(#pf8bf03c720)" style="fill: #1a4c32"/>
   </g>
   <g id="patch_213">
    <path d="M 192.943731 34.658437 
L 193.815606 34.658437 
L 193.815606 20.798437 
L 192.943731 20.798437 
z
" clip-path="url(#pf8bf03c720)" style="fill: #1a4b31"/>
   </g>
   <g id="patch_214">
    <path d="M 193.815606 34.658437 
L 194.687481 34.658437 
L 194.687481 20.798437 
L 193.815606 20.798437 
z
" clip-path="url(#pf8bf03c720)" style="fill: #1a4a30"/>
   </g>
   <g id="patch_215">
    <path d="M 194.687481 34.658437 
L 195.559356 34.658437 
L 195.559356 20.798437 
L 194.687481 20.798437 
z
" clip-path="url(#pf8bf03c720)" style="fill: #1a4930"/>
   </g>
   <g id="patch_216">
    <path d="M 195.559356 34.658437 
L 196.431231 34.658437 
L 196.431231 20.798437 
L 195.559356 20.798437 
z
" clip-path="url(#pf8bf03c720)" style="fill: #1a482f"/>
   </g>
   <g id="patch_217">
    <path d="M 196.431231 34.658437 
L 197.303106 34.658437 
L 197.303106 20.798437 
L 196.431231 20.798437 
z
" clip-path="url(#pf8bf03c720)" style="fill: #1a472f"/>
   </g>
   <g id="patch_218">
    <path d="M 197.303106 34.658437 
L 198.174981 34.658437 
L 198.174981 20.798437 
L 197.303106 20.798437 
z
" clip-path="url(#pf8bf03c720)" style="fill: #1a472e"/>
   </g>
   <g id="patch_219">
    <path d="M 198.174981 34.658437 
L 199.046856 34.658437 
L 199.046856 20.798437 
L 198.174981 20.798437 
z
" clip-path="url(#pf8bf03c720)" style="fill: #1a462e"/>
   </g>
   <g id="patch_220">
    <path d="M 199.046856 34.658437 
L 199.918731 34.658437 
L 199.918731 20.798437 
L 199.046856 20.798437 
z
" clip-path="url(#pf8bf03c720)" style="fill: #1a452d"/>
   </g>
   <g id="patch_221">
    <path d="M 199.918731 34.658437 
L 200.790606 34.658437 
L 200.790606 20.798437 
L 199.918731 20.798437 
z
" clip-path="url(#pf8bf03c720)" style="fill: #1a442c"/>
   </g>
   <g id="patch_222">
    <path d="M 200.790606 34.658437 
L 201.662481 34.658437 
L 201.662481 20.798437 
L 200.790606 20.798437 
z
" clip-path="url(#pf8bf03c720)" style="fill: #1a432c"/>
   </g>
   <g id="patch_223">
    <path d="M 201.662481 34.658437 
L 202.534356 34.658437 
L 202.534356 20.798437 
L 201.662481 20.798437 
z
" clip-path="url(#pf8bf03c720)" style="fill: #19422b"/>
   </g>
   <g id="patch_224">
    <path d="M 202.534356 34.658437 
L 203.406231 34.658437 
L 203.406231 20.798437 
L 202.534356 20.798437 
z
" clip-path="url(#pf8bf03c720)" style="fill: #19412b"/>
   </g>
   <g id="patch_225">
    <path d="M 203.406231 34.658437 
L 204.278106 34.658437 
L 204.278106 20.798437 
L 203.406231 20.798437 
z
" clip-path="url(#pf8bf03c720)" style="fill: #19402a"/>
   </g>
   <g id="patch_226">
    <path d="M 204.278106 34.658437 
L 205.149981 34.658437 
L 205.149981 20.798437 
L 204.278106 20.798437 
z
" clip-path="url(#pf8bf03c720)" style="fill: #194029"/>
   </g>
   <g id="patch_227">
    <path d="M 205.149981 34.658437 
L 206.021856 34.658437 
L 206.021856 20.798437 
L 205.149981 20.798437 
z
" clip-path="url(#pf8bf03c720)" style="fill: #193f29"/>
   </g>
   <g id="patch_228">
    <path d="M 206.021856 34.658437 
L 206.893731 34.658437 
L 206.893731 20.798437 
L 206.021856 20.798437 
z
" clip-path="url(#pf8bf03c720)" style="fill: #193e28"/>
   </g>
   <g id="patch_229">
    <path d="M 206.893731 34.658437 
L 207.765606 34.658437 
L 207.765606 20.798437 
L 206.893731 20.798437 
z
" clip-path="url(#pf8bf03c720)" style="fill: #193d27"/>
   </g>
   <g id="patch_230">
    <path d="M 207.765606 34.658437 
L 208.637481 34.658437 
L 208.637481 20.798437 
L 207.765606 20.798437 
z
" clip-path="url(#pf8bf03c720)" style="fill: #193c27"/>
   </g>
   <g id="patch_231">
    <path d="M 208.637481 34.658437 
L 209.509356 34.658437 
L 209.509356 20.798437 
L 208.637481 20.798437 
z
" clip-path="url(#pf8bf03c720)" style="fill: #183b26"/>
   </g>
   <g id="patch_232">
    <path d="M 209.509356 34.658437 
L 210.381231 34.658437 
L 210.381231 20.798437 
L 209.509356 20.798437 
z
" clip-path="url(#pf8bf03c720)" style="fill: #183b26"/>
   </g>
   <g id="patch_233">
    <path d="M 210.381231 34.658437 
L 211.253106 34.658437 
L 211.253106 20.798437 
L 210.381231 20.798437 
z
" clip-path="url(#pf8bf03c720)" style="fill: #183a25"/>
   </g>
   <g id="patch_234">
    <path d="M 211.253106 34.658437 
L 212.124981 34.658437 
L 212.124981 20.798437 
L 211.253106 20.798437 
z
" clip-path="url(#pf8bf03c720)" style="fill: #183924"/>
   </g>
   <g id="patch_235">
    <path d="M 212.124981 34.658437 
L 212.996856 34.658437 
L 212.996856 20.798437 
L 212.124981 20.798437 
z
" clip-path="url(#pf8bf03c720)" style="fill: #183824"/>
   </g>
   <g id="patch_236">
    <path d="M 212.996856 34.658437 
L 213.868731 34.658437 
L 213.868731 20.798437 
L 212.996856 20.798437 
z
" clip-path="url(#pf8bf03c720)" style="fill: #183723"/>
   </g>
   <g id="patch_237">
    <path d="M 213.868731 34.658437 
L 214.740606 34.658437 
L 214.740606 20.798437 
L 213.868731 20.798437 
z
" clip-path="url(#pf8bf03c720)" style="fill: #173622"/>
   </g>
   <g id="patch_238">
    <path d="M 214.740606 34.658437 
L 215.612481 34.658437 
L 215.612481 20.798437 
L 214.740606 20.798437 
z
" clip-path="url(#pf8bf03c720)" style="fill: #173522"/>
   </g>
   <g id="patch_239">
    <path d="M 215.612481 34.658437 
L 216.484356 34.658437 
L 216.484356 20.798437 
L 215.612481 20.798437 
z
" clip-path="url(#pf8bf03c720)" style="fill: #173521"/>
   </g>
   <g id="patch_240">
    <path d="M 216.484356 34.658437 
L 217.356231 34.658437 
L 217.356231 20.798437 
L 216.484356 20.798437 
z
" clip-path="url(#pf8bf03c720)" style="fill: #173420"/>
   </g>
   <g id="patch_241">
    <path d="M 217.356231 34.658437 
L 218.228106 34.658437 
L 218.228106 20.798437 
L 217.356231 20.798437 
z
" clip-path="url(#pf8bf03c720)" style="fill: #173320"/>
   </g>
   <g id="patch_242">
    <path d="M 218.228106 34.658437 
L 219.099981 34.658437 
L 219.099981 20.798437 
L 218.228106 20.798437 
z
" clip-path="url(#pf8bf03c720)" style="fill: #16321f"/>
   </g>
   <g id="patch_243">
    <path d="M 219.099981 34.658437 
L 219.971856 34.658437 
L 219.971856 20.798437 
L 219.099981 20.798437 
z
" clip-path="url(#pf8bf03c720)" style="fill: #16311e"/>
   </g>
   <g id="patch_244">
    <path d="M 219.971856 34.658437 
L 220.843731 34.658437 
L 220.843731 20.798437 
L 219.971856 20.798437 
z
" clip-path="url(#pf8bf03c720)" style="fill: #16301e"/>
   </g>
   <g id="patch_245">
    <path d="M 220.843731 34.658437 
L 221.715606 34.658437 
L 221.715606 20.798437 
L 220.843731 20.798437 
z
" clip-path="url(#pf8bf03c720)" style="fill: #162f1d"/>
   </g>
   <g id="patch_246">
    <path d="M 221.715606 34.658437 
L 222.587481 34.658437 
L 222.587481 20.798437 
L 221.715606 20.798437 
z
" clip-path="url(#pf8bf03c720)" style="fill: #152f1c"/>
   </g>
   <g id="patch_247">
    <path d="M 222.587481 34.658437 
L 223.459356 34.658437 
L 223.459356 20.798437 
L 222.587481 20.798437 
z
" clip-path="url(#pf8bf03c720)" style="fill: #152e1c"/>
   </g>
   <g id="patch_248">
    <path d="M 223.459356 34.658437 
L 224.331231 34.658437 
L 224.331231 20.798437 
L 223.459356 20.798437 
z
" clip-path="url(#pf8bf03c720)" style="fill: #152d1b"/>
   </g>
   <g id="patch_249">
    <path d="M 224.331231 34.658437 
L 225.203106 34.658437 
L 225.203106 20.798437 
L 224.331231 20.798437 
z
" clip-path="url(#pf8bf03c720)" style="fill: #142c1a"/>
   </g>
   <g id="patch_250">
    <path d="M 225.203106 34.658437 
L 226.074981 34.658437 
L 226.074981 20.798437 
L 225.203106 20.798437 
z
" clip-path="url(#pf8bf03c720)" style="fill: #142b1a"/>
   </g>
   <g id="patch_251">
    <path d="M 226.074981 34.658437 
L 226.946856 34.658437 
L 226.946856 20.798437 
L 226.074981 20.798437 
z
" clip-path="url(#pf8bf03c720)" style="fill: #142a19"/>
   </g>
   <g id="patch_252">
    <path d="M 226.946856 34.658437 
L 227.818731 34.658437 
L 227.818731 20.798437 
L 226.946856 20.798437 
z
" clip-path="url(#pf8bf03c720)" style="fill: #142918"/>
   </g>
   <g id="patch_253">
    <path d="M 227.818731 34.658437 
L 228.690606 34.658437 
L 228.690606 20.798437 
L 227.818731 20.798437 
z
" clip-path="url(#pf8bf03c720)" style="fill: #132918"/>
   </g>
   <g id="patch_254">
    <path d="M 228.690606 34.658437 
L 229.562481 34.658437 
L 229.562481 20.798437 
L 228.690606 20.798437 
z
" clip-path="url(#pf8bf03c720)" style="fill: #132817"/>
   </g>
   <g id="patch_255">
    <path d="M 229.562481 34.658437 
L 230.434356 34.658437 
L 230.434356 20.798437 
L 229.562481 20.798437 
z
" clip-path="url(#pf8bf03c720)" style="fill: #132716"/>
   </g>
   <g id="patch_256">
    <path d="M 230.434356 34.658437 
L 231.306231 34.658437 
L 231.306231 20.798437 
L 230.434356 20.798437 
z
" clip-path="url(#pf8bf03c720)" style="fill: #122616"/>
   </g>
   <g id="patch_257">
    <path d="M 231.306231 34.658437 
L 232.178106 34.658437 
L 232.178106 20.798437 
L 231.306231 20.798437 
z
" clip-path="url(#pf8bf03c720)" style="fill: #122515"/>
   </g>
   <g id="patch_258">
    <path d="M 232.178106 34.658437 
L 233.049981 34.658437 
L 233.049981 20.798437 
L 232.178106 20.798437 
z
" clip-path="url(#pf8bf03c720)" style="fill: #122414"/>
   </g>
   <g id="matplotlib.axis_1">
    <g id="xtick_1">
     <g id="line2d_1">
      <defs>
       <path id="m1df6921c0a" d="M 0 0 
L 0 3.5 
" style="stroke: #000000; stroke-width: 0.8"/>
      </defs>
      <g>
       <use xlink:href="#m1df6921c0a" x="9.849981" y="34.658437" style="stroke: #000000; stroke-width: 0.8"/>
      </g>
     </g>
     <g id="text_1">
      <!-- 1 -->
      <g transform="translate(7.2 47.987936) scale(0.0833 -0.0833)">
       <defs>
        <path id="DejaVuSans-31" d="M 794 531 
L 1825 531 
L 1825 4091 
L 703 3866 
L 703 4441 
L 1819 4666 
L 2450 4666 
L 2450 531 
L 3481 531 
L 3481 0 
L 794 0 
L 794 531 
z
" transform="scale(0.015625)"/>
       </defs>
       <use xlink:href="#DejaVuSans-31"/>
      </g>
     </g>
    </g>
    <g id="xtick_2">
     <g id="line2d_2">
      <g>
       <use xlink:href="#m1df6921c0a" x="233.049981" y="34.658437" style="stroke: #000000; stroke-width: 0.8"/>
      </g>
     </g>
     <g id="text_2">
      <!-- 257 -->
      <g transform="translate(225.100037 47.987936) scale(0.0833 -0.0833)">
       <defs>
        <path id="DejaVuSans-32" d="M 1228 531 
L 3431 531 
L 3431 0 
L 469 0 
L 469 531 
Q 828 903 1448 1529 
Q 2069 2156 2228 2338 
Q 2531 2678 2651 2914 
Q 2772 3150 2772 3378 
Q 2772 3750 2511 3984 
Q 2250 4219 1831 4219 
Q 1534 4219 1204 4116 
Q 875 4013 500 3803 
L 500 4441 
Q 881 4594 1212 4672 
Q 1544 4750 1819 4750 
Q 2544 4750 2975 4387 
Q 3406 4025 3406 3419 
Q 3406 3131 3298 2873 
Q 3191 2616 2906 2266 
Q 2828 2175 2409 1742 
Q 1991 1309 1228 531 
z
" transform="scale(0.015625)"/>
        <path id="DejaVuSans-35" d="M 691 4666 
L 3169 4666 
L 3169 4134 
L 1269 4134 
L 1269 2991 
Q 1406 3038 1543 3061 
Q 1681 3084 1819 3084 
Q 2600 3084 3056 2656 
Q 3513 2228 3513 1497 
Q 3513 744 3044 326 
Q 2575 -91 1722 -91 
Q 1428 -91 1123 -41 
Q 819 9 494 109 
L 494 744 
Q 775 591 1075 516 
Q 1375 441 1709 441 
Q 2250 441 2565 725 
Q 2881 1009 2881 1497 
Q 2881 1984 2565 2268 
Q 2250 2553 1709 2553 
Q 1456 2553 1204 2497 
Q 953 2441 691 2322 
L 691 4666 
z
" transform="scale(0.015625)"/>
        <path id="DejaVuSans-37" d="M 525 4666 
L 3525 4666 
L 3525 4397 
L 1831 0 
L 1172 0 
L 2766 4134 
L 525 4134 
L 525 4666 
z
" transform="scale(0.015625)"/>
       </defs>
       <use xlink:href="#DejaVuSans-32"/>
       <use xlink:href="#DejaVuSans-35" transform="translate(63.623047 0)"/>
       <use xlink:href="#DejaVuSans-37" transform="translate(127.246094 0)"/>
      </g>
     </g>
    </g>
   </g>
   <g id="matplotlib.axis_2"/>
   <g id="patch_259">
    <path d="M 9.849981 34.658437 
L 9.849981 20.798437 
" style="fill: none; stroke: #000000; stroke-width: 0.8; stroke-linejoin: miter; stroke-linecap: square"/>
   </g>
   <g id="patch_260">
    <path d="M 233.049981 34.658437 
L 233.049981 20.798437 
" style="fill: none; stroke: #000000; stroke-width: 0.8; stroke-linejoin: miter; stroke-linecap: square"/>
   </g>
   <g id="patch_261">
    <path d="M 9.849981 34.658437 
L 233.049981 34.658437 
" style="fill: none; stroke: #000000; stroke-width: 0.8; stroke-linejoin: miter; stroke-linecap: square"/>
   </g>
   <g id="patch_262">
    <path d="M 9.849981 20.798437 
L 233.049981 20.798437 
" style="fill: none; stroke: #000000; stroke-width: 0.8; stroke-linejoin: miter; stroke-linecap: square"/>
   </g>
   <g id="text_3">
    <!-- algae -->
    <g transform="translate(107.682013 14.798437) scale(0.1 -0.1)">
     <defs>
      <path id="DejaVuSans-61" d="M 2194 1759 
Q 1497 1759 1228 1600 
Q 959 1441 959 1056 
Q 959 750 1161 570 
Q 1363 391 1709 391 
Q 2188 391 2477 730 
Q 2766 1069 2766 1631 
L 2766 1759 
L 2194 1759 
z
M 3341 1997 
L 3341 0 
L 2766 0 
L 2766 531 
Q 2569 213 2275 61 
Q 1981 -91 1556 -91 
Q 1019 -91 701 211 
Q 384 513 384 1019 
Q 384 1609 779 1909 
Q 1175 2209 1959 2209 
L 2766 2209 
L 2766 2266 
Q 2766 2663 2505 2880 
Q 2244 3097 1772 3097 
Q 1472 3097 1187 3025 
Q 903 2953 641 2809 
L 641 3341 
Q 956 3463 1253 3523 
Q 1550 3584 1831 3584 
Q 2591 3584 2966 3190 
Q 3341 2797 3341 1997 
z
" transform="scale(0.015625)"/>
      <path id="DejaVuSans-6c" d="M 603 4863 
L 1178 4863 
L 1178 0 
L 603 0 
L 603 4863 
z
" transform="scale(0.015625)"/>
      <path id="DejaVuSans-67" d="M 2906 1791 
Q 2906 2416 2648 2759 
Q 2391 3103 1925 3103 
Q 1463 3103 1205 2759 
Q 947 2416 947 1791 
Q 947 1169 1205 825 
Q 1463 481 1925 481 
Q 2391 481 2648 825 
Q 2906 1169 2906 1791 
z
M 3481 434 
Q 3481 -459 3084 -895 
Q 2688 -1331 1869 -1331 
Q 1566 -1331 1297 -1286 
Q 1028 -1241 775 -1147 
L 775 -588 
Q 1028 -725 1275 -790 
Q 1522 -856 1778 -856 
Q 2344 -856 2625 -561 
Q 2906 -266 2906 331 
L 2906 616 
Q 2728 306 2450 153 
Q 2172 0 1784 0 
Q 1141 0 747 490 
Q 353 981 353 1791 
Q 353 2603 747 3093 
Q 1141 3584 1784 3584 
Q 2172 3584 2450 3431 
Q 2728 3278 2906 2969 
L 2906 3500 
L 3481 3500 
L 3481 434 
z
" transform="scale(0.015625)"/>
      <path id="DejaVuSans-65" d="M 3597 1894 
L 3597 1613 
L 953 1613 
Q 991 1019 1311 708 
Q 1631 397 2203 397 
Q 2534 397 2845 478 
Q 3156 559 3463 722 
L 3463 178 
Q 3153 47 2828 -22 
Q 2503 -91 2169 -91 
Q 1331 -91 842 396 
Q 353 884 353 1716 
Q 353 2575 817 3079 
Q 1281 3584 2069 3584 
Q 2775 3584 3186 3129 
Q 3597 2675 3597 1894 
z
M 3022 2063 
Q 3016 2534 2758 2815 
Q 2500 3097 2075 3097 
Q 1594 3097 1305 2825 
Q 1016 2553 972 2059 
L 3022 2063 
z
" transform="scale(0.015625)"/>
     </defs>
     <use xlink:href="#DejaVuSans-61"/>
     <use xlink:href="#DejaVuSans-6c" transform="translate(61.279297 0)"/>
     <use xlink:href="#DejaVuSans-67" transform="translate(89.0625 0)"/>
     <use xlink:href="#DejaVuSans-61" transform="translate(152.539062 0)"/>
     <use xlink:href="#DejaVuSans-65" transform="translate(213.818359 0)"/>
    </g>
   </g>
  </g>
 </g>
 <defs>
  <clipPath id="pf8bf03c720">
   <rect x="9.849981" y="20.798437" width="223.2" height="13.86"/>
  </clipPath>
 </defs>
</svg>
