<?xml version="1.0" encoding="utf-8" standalone="no"?>
<!DOCTYPE svg PUBLIC "-//W3C//DTD SVG 1.1//EN"
  "http://www.w3.org/Graphics/SVG/1.1/DTD/svg11.dtd">
<svg xmlns:xlink="http://www.w3.org/1999/xlink" width="251.690065pt" height="56.920316pt" viewBox="0 0 251.690065 56.920316" xmlns="http://www.w3.org/2000/svg" version="1.1">
 <metadata>
  <rdf:RDF xmlns:dc="http://purl.org/dc/elements/1.1/" xmlns:cc="http://creativecommons.org/ns#" xmlns:rdf="http://www.w3.org/1999/02/22-rdf-syntax-ns#">
   <cc:Work>
    <dc:type rdf:resource="http://purl.org/dc/dcmitype/StillImage"/>
    <dc:date>2025-10-28T13:15:02.835860</dc:date>
    <dc:format>image/svg+xml</dc:format>
    <dc:creator>
     <cc:Agent>
      <dc:title>Matplotlib v3.10.7, https://matplotlib.org/</dc:title>
     </cc:Agent>
    </dc:creator>
   </cc:Work>
  </rdf:RDF>
 </metadata>
 <defs>
  <style type="text/css">*{stroke-linejoin: round; stroke-linecap: butt}</style>
 </defs>
 <g id="figure_1">
  <g id="patch_1">
   <path d="M 0 56.920316 
L 251.690065 56.920316 
L 251.690065 0 
L 0 0 
z
" style="fill: #ffffff"/>
  </g>
  <g id="axes_1">
   <g id="patch_2">
    <path d="M 15.990102 34.658437 
L 239.190102 34.658437 
L 239.190102 20.798437 
L 15.990102 20.798437 
z
" style="fill: #ffffff"/>
   </g>
   <g id="patch_3">
    <path d="M 15.990102 34.658437 
L 23.686654 34.658437 
L 23.686654 20.798437 
L 15.990102 20.798437 
z
" clip-path="url(#paf49fb0c73)" style="fill: #71abd8"/>
   </g>
   <g id="patch_4">
    <path d="M 23.686654 34.658437 
L 31.383206 34.658437 
L 31.383206 20.798437 
L 23.686654 20.798437 
z
" clip-path="url(#paf49fb0c73)" style="fill: #79b2de"/>
   </g>
   <g id="patch_5">
    <path d="M 31.383206 34.658437 
L 39.079758 34.658437 
L 39.079758 20.798437 
L 31.383206 20.798437 
z
" clip-path="url(#paf49fb0c73)" style="fill: #84b9e3"/>
   </g>
   <g id="patch_6">
    <path d="M 39.079758 34.658437 
L 46.776309 34.658437 
L 46.776309 20.798437 
L 39.079758 20.798437 
z
" clip-path="url(#paf49fb0c73)" style="fill: #8dc1ea"/>
   </g>
   <g id="patch_7">
    <path d="M 46.776309 34.658437 
L 54.472861 34.658437 
L 54.472861 20.798437 
L 46.776309 20.798437 
z
" clip-path="url(#paf49fb0c73)" style="fill: #96c9f0"/>
   </g>
   <g id="patch_8">
    <path d="M 54.472861 34.658437 
L 62.169413 34.658437 
L 62.169413 20.798437 
L 54.472861 20.798437 
z
" clip-path="url(#paf49fb0c73)" style="fill: #a1d2f7"/>
   </g>
   <g id="patch_9">
    <path d="M 62.169413 34.658437 
L 69.865964 34.658437 
L 69.865964 20.798437 
L 62.169413 20.798437 
z
" clip-path="url(#paf49fb0c73)" style="fill: #acdbfb"/>
   </g>
   <g id="patch_10">
    <path d="M 69.865964 34.658437 
L 77.562516 34.658437 
L 77.562516 20.798437 
L 69.865964 20.798437 
z
" clip-path="url(#paf49fb0c73)" style="fill: #b9e3ff"/>
   </g>
   <g id="patch_11">
    <path d="M 77.562516 34.658437 
L 85.259068 34.658437 
L 85.259068 20.798437 
L 77.562516 20.798437 
z
" clip-path="url(#paf49fb0c73)" style="fill: #c6ecff"/>
   </g>
   <g id="patch_12">
    <path d="M 85.259068 34.658437 
L 92.95562 34.658437 
L 92.95562 20.798437 
L 85.259068 20.798437 
z
" clip-path="url(#paf49fb0c73)" style="fill: #d8f2fe"/>
   </g>
   <g id="patch_13">
    <path d="M 92.95562 34.658437 
L 100.652171 34.658437 
L 100.652171 20.798437 
L 92.95562 20.798437 
z
" clip-path="url(#paf49fb0c73)" style="fill: #acd0a5"/>
   </g>
   <g id="patch_14">
    <path d="M 100.652171 34.658437 
L 108.348723 34.658437 
L 108.348723 20.798437 
L 100.652171 20.798437 
z
" clip-path="url(#paf49fb0c73)" style="fill: #94bf8b"/>
   </g>
   <g id="patch_15">
    <path d="M 108.348723 34.658437 
L 116.045275 34.658437 
L 116.045275 20.798437 
L 108.348723 20.798437 
z
" clip-path="url(#paf49fb0c73)" style="fill: #a8c68f"/>
   </g>
   <g id="patch_16">
    <path d="M 116.045275 34.658437 
L 123.741826 34.658437 
L 123.741826 20.798437 
L 116.045275 20.798437 
z
" clip-path="url(#paf49fb0c73)" style="fill: #bdcc96"/>
   </g>
   <g id="patch_17">
    <path d="M 123.741826 34.658437 
L 131.438378 34.658437 
L 131.438378 20.798437 
L 123.741826 20.798437 
z
" clip-path="url(#paf49fb0c73)" style="fill: #d1d7ab"/>
   </g>
   <g id="patch_18">
    <path d="M 131.438378 34.658437 
L 139.13493 34.658437 
L 139.13493 20.798437 
L 131.438378 20.798437 
z
" clip-path="url(#paf49fb0c73)" style="fill: #e1e4b5"/>
   </g>
   <g id="patch_19">
    <path d="M 139.13493 34.658437 
L 146.831482 34.658437 
L 146.831482 20.798437 
L 139.13493 20.798437 
z
" clip-path="url(#paf49fb0c73)" style="fill: #efebc0"/>
   </g>
   <g id="patch_20">
    <path d="M 146.831482 34.658437 
L 154.528033 34.658437 
L 154.528033 20.798437 
L 146.831482 20.798437 
z
" clip-path="url(#paf49fb0c73)" style="fill: #e8e1b6"/>
   </g>
   <g id="patch_21">
    <path d="M 154.528033 34.658437 
L 162.224585 34.658437 
L 162.224585 20.798437 
L 154.528033 20.798437 
z
" clip-path="url(#paf49fb0c73)" style="fill: #ded6a3"/>
   </g>
   <g id="patch_22">
    <path d="M 162.224585 34.658437 
L 169.921137 34.658437 
L 169.921137 20.798437 
L 162.224585 20.798437 
z
" clip-path="url(#paf49fb0c73)" style="fill: #d3ca9d"/>
   </g>
   <g id="patch_23">
    <path d="M 169.921137 34.658437 
L 177.617689 34.658437 
L 177.617689 20.798437 
L 169.921137 20.798437 
z
" clip-path="url(#paf49fb0c73)" style="fill: #cab982"/>
   </g>
   <g id="patch_24">
    <path d="M 177.617689 34.658437 
L 185.31424 34.658437 
L 185.31424 20.798437 
L 177.617689 20.798437 
z
" clip-path="url(#paf49fb0c73)" style="fill: #c3a76b"/>
   </g>
   <g id="patch_25">
    <path d="M 185.31424 34.658437 
L 193.010792 34.658437 
L 193.010792 20.798437 
L 185.31424 20.798437 
z
" clip-path="url(#paf49fb0c73)" style="fill: #b9985a"/>
   </g>
   <g id="patch_26">
    <path d="M 193.010792 34.658437 
L 200.707344 34.658437 
L 200.707344 20.798437 
L 193.010792 20.798437 
z
" clip-path="url(#paf49fb0c73)" style="fill: #aa8753"/>
   </g>
   <g id="patch_27">
    <path d="M 200.707344 34.658437 
L 208.403895 34.658437 
L 208.403895 20.798437 
L 200.707344 20.798437 
z
" clip-path="url(#paf49fb0c73)" style="fill: #ac9a7c"/>
   </g>
   <g id="patch_28">
    <path d="M 208.403895 34.658437 
L 216.100447 34.658437 
L 216.100447 20.798437 
L 208.403895 20.798437 
z
" clip-path="url(#paf49fb0c73)" style="fill: #baae9a"/>
   </g>
   <g id="patch_29">
    <path d="M 216.100447 34.658437 
L 223.796999 34.658437 
L 223.796999 20.798437 
L 216.100447 20.798437 
z
" clip-path="url(#paf49fb0c73)" style="fill: #cac3b8"/>
   </g>
   <g id="patch_30">
    <path d="M 223.796999 34.658437 
L 231.493551 34.658437 
L 231.493551 20.798437 
L 223.796999 20.798437 
z
" clip-path="url(#paf49fb0c73)" style="fill: #e0ded8"/>
   </g>
   <g id="patch_31">
    <path d="M 231.493551 34.658437 
L 239.190102 34.658437 
L 239.190102 20.798437 
L 231.493551 20.798437 
z
" clip-path="url(#paf49fb0c73)" style="fill: #f5f4f2"/>
   </g>
   <g id="matplotlib.axis_1">
    <g id="xtick_1">
     <g id="line2d_1">
      <defs>
       <path id="mba19e2e0e8" d="M 0 0 
L 0 3.5 
" style="stroke: #000000; stroke-width: 0.8"/>
      </defs>
      <g>
       <use xlink:href="#mba19e2e0e8" x="15.990102" y="34.658437" style="stroke: #000000; stroke-width: 0.8"/>
      </g>
     </g>
     <g id="text_1">
      <!-- −10 -->
      <g transform="translate(7.2 47.987936) scale(0.0833 -0.0833)">
       <defs>
        <path id="DejaVuSans-2212" d="M 678 2272 
L 4684 2272 
L 4684 1741 
L 678 1741 
L 678 2272 
z
" transform="scale(0.015625)"/>
        <path id="DejaVuSans-31" d="M 794 531 
L 1825 531 
L 1825 4091 
L 703 3866 
L 703 4441 
L 1819 4666 
L 2450 4666 
L 2450 531 
L 3481 531 
L 3481 0 
L 794 0 
L 794 531 
z
" transform="scale(0.015625)"/>
        <path id="DejaVuSans-30" d="M 2034 4250 
Q 1547 4250 1301 3770 
Q 1056 3291 1056 2328 
Q 1056 1369 1301 889 
Q 1547 409 2034 409 
Q 2525 409 2770 889 
Q 3016 1369 3016 2328 
Q 3016 3291 2770 3770 
Q 2525 4250 2034 4250 
z
M 2034 4750 
Q 2819 4750 3233 4129 
Q 3647 3509 3647 2328 
Q 3647 1150 3233 529 
Q 2819 -91 2034 -91 
Q 1250 -91 836 529 
Q 422 1150 422 2328 
Q 422 3509 836 4129 
Q 1250 4750 2034 4750 
z
" transform="scale(0.015625)"/>
       </defs>
       <use xlink:href="#DejaVuSans-2212"/>
       <use xlink:href="#DejaVuSans-31" transform="translate(83.789062 0)"/>
       <use xlink:href="#DejaVuSans-30" transform="translate(147.412109 0)"/>
      </g>
     </g>
    </g>
    <g id="xtick_2">
     <g id="line2d_2">
      <g>
       <use xlink:href="#mba19e2e0e8" x="92.95562" y="34.658437" style="stroke: #000000; stroke-width: 0.8"/>
      </g>
     </g>
     <g id="text_2">
      <!-- 0 -->
      <g transform="translate(90.305638 47.987936) scale(0.0833 -0.0833)">
       <use xlink:href="#DejaVuSans-30"/>
      </g>
     </g>
    </g>
    <g id="xtick_3">
     <g id="line2d_3">
      <g>
       <use xlink:href="#mba19e2e0e8" x="239.190102" y="34.658437" style="stroke: #000000; stroke-width: 0.8"/>
      </g>
     </g>
     <g id="text_3">
      <!-- 19 -->
      <g transform="translate(233.89014 47.987936) scale(0.0833 -0.0833)">
       <defs>
        <path id="DejaVuSans-39" d="M 703 97 
L 703 672 
Q 941 559 1184 500 
Q 1428 441 1663 441 
Q 2288 441 2617 861 
Q 2947 1281 2994 2138 
Q 2813 1869 2534 1725 
Q 2256 1581 1919 1581 
Q 1219 1581 811 2004 
Q 403 2428 403 3163 
Q 403 3881 828 4315 
Q 1253 4750 1959 4750 
Q 2769 4750 3195 4129 
Q 3622 3509 3622 2328 
Q 3622 1225 3098 567 
Q 2575 -91 1691 -91 
Q 1453 -91 1209 -44 
Q 966 3 703 97 
z
M 1959 2075 
Q 2384 2075 2632 2365 
Q 2881 2656 2881 3163 
Q 2881 3666 2632 3958 
Q 2384 4250 1959 4250 
Q 1534 4250 1286 3958 
Q 1038 3666 1038 3163 
Q 1038 2656 1286 2365 
Q 1534 2075 1959 2075 
z
" transform="scale(0.015625)"/>
       </defs>
       <use xlink:href="#DejaVuSans-31"/>
       <use xlink:href="#DejaVuSans-39" transform="translate(63.623047 0)"/>
      </g>
     </g>
    </g>
    <g id="xtick_4">
     <g id="line2d_4">
      <defs>
       <path id="md33e884512" d="M 0 0 
L 0 2 
" style="stroke: #000000; stroke-width: 0.6"/>
      </defs>
      <g>
       <use xlink:href="#md33e884512" x="23.686654" y="34.658437" style="stroke: #000000; stroke-width: 0.6"/>
      </g>
     </g>
    </g>
    <g id="xtick_5">
     <g id="line2d_5">
      <g>
       <use xlink:href="#md33e884512" x="31.383206" y="34.658437" style="stroke: #000000; stroke-width: 0.6"/>
      </g>
     </g>
    </g>
    <g id="xtick_6">
     <g id="line2d_6">
      <g>
       <use xlink:href="#md33e884512" x="39.079758" y="34.658437" style="stroke: #000000; stroke-width: 0.6"/>
      </g>
     </g>
    </g>
    <g id="xtick_7">
     <g id="line2d_7">
      <g>
       <use xlink:href="#md33e884512" x="46.776309" y="34.658437" style="stroke: #000000; stroke-width: 0.6"/>
      </g>
     </g>
    </g>
    <g id="xtick_8">
     <g id="line2d_8">
      <g>
       <use xlink:href="#md33e884512" x="54.472861" y="34.658437" style="stroke: #000000; stroke-width: 0.6"/>
      </g>
     </g>
    </g>
    <g id="xtick_9">
     <g id="line2d_9">
      <g>
       <use xlink:href="#md33e884512" x="62.169413" y="34.658437" style="stroke: #000000; stroke-width: 0.6"/>
      </g>
     </g>
    </g>
    <g id="xtick_10">
     <g id="line2d_10">
      <g>
       <use xlink:href="#md33e884512" x="69.865964" y="34.658437" style="stroke: #000000; stroke-width: 0.6"/>
      </g>
     </g>
    </g>
    <g id="xtick_11">
     <g id="line2d_11">
      <g>
       <use xlink:href="#md33e884512" x="77.562516" y="34.658437" style="stroke: #000000; stroke-width: 0.6"/>
      </g>
     </g>
    </g>
    <g id="xtick_12">
     <g id="line2d_12">
      <g>
       <use xlink:href="#md33e884512" x="85.259068" y="34.658437" style="stroke: #000000; stroke-width: 0.6"/>
      </g>
     </g>
    </g>
    <g id="xtick_13">
     <g id="line2d_13">
      <g>
       <use xlink:href="#md33e884512" x="100.652171" y="34.658437" style="stroke: #000000; stroke-width: 0.6"/>
      </g>
     </g>
    </g>
    <g id="xtick_14">
     <g id="line2d_14">
      <g>
       <use xlink:href="#md33e884512" x="108.348723" y="34.658437" style="stroke: #000000; stroke-width: 0.6"/>
      </g>
     </g>
    </g>
    <g id="xtick_15">
     <g id="line2d_15">
      <g>
       <use xlink:href="#md33e884512" x="116.045275" y="34.658437" style="stroke: #000000; stroke-width: 0.6"/>
      </g>
     </g>
    </g>
    <g id="xtick_16">
     <g id="line2d_16">
      <g>
       <use xlink:href="#md33e884512" x="123.741826" y="34.658437" style="stroke: #000000; stroke-width: 0.6"/>
      </g>
     </g>
    </g>
    <g id="xtick_17">
     <g id="line2d_17">
      <g>
       <use xlink:href="#md33e884512" x="131.438378" y="34.658437" style="stroke: #000000; stroke-width: 0.6"/>
      </g>
     </g>
    </g>
    <g id="xtick_18">
     <g id="line2d_18">
      <g>
       <use xlink:href="#md33e884512" x="139.13493" y="34.658437" style="stroke: #000000; stroke-width: 0.6"/>
      </g>
     </g>
    </g>
    <g id="xtick_19">
     <g id="line2d_19">
      <g>
       <use xlink:href="#md33e884512" x="146.831482" y="34.658437" style="stroke: #000000; stroke-width: 0.6"/>
      </g>
     </g>
    </g>
    <g id="xtick_20">
     <g id="line2d_20">
      <g>
       <use xlink:href="#md33e884512" x="154.528033" y="34.658437" style="stroke: #000000; stroke-width: 0.6"/>
      </g>
     </g>
    </g>
    <g id="xtick_21">
     <g id="line2d_21">
      <g>
       <use xlink:href="#md33e884512" x="162.224585" y="34.658437" style="stroke: #000000; stroke-width: 0.6"/>
      </g>
     </g>
    </g>
    <g id="xtick_22">
     <g id="line2d_22">
      <g>
       <use xlink:href="#md33e884512" x="169.921137" y="34.658437" style="stroke: #000000; stroke-width: 0.6"/>
      </g>
     </g>
    </g>
    <g id="xtick_23">
     <g id="line2d_23">
      <g>
       <use xlink:href="#md33e884512" x="177.617689" y="34.658437" style="stroke: #000000; stroke-width: 0.6"/>
      </g>
     </g>
    </g>
    <g id="xtick_24">
     <g id="line2d_24">
      <g>
       <use xlink:href="#md33e884512" x="185.31424" y="34.658437" style="stroke: #000000; stroke-width: 0.6"/>
      </g>
     </g>
    </g>
    <g id="xtick_25">
     <g id="line2d_25">
      <g>
       <use xlink:href="#md33e884512" x="193.010792" y="34.658437" style="stroke: #000000; stroke-width: 0.6"/>
      </g>
     </g>
    </g>
    <g id="xtick_26">
     <g id="line2d_26">
      <g>
       <use xlink:href="#md33e884512" x="200.707344" y="34.658437" style="stroke: #000000; stroke-width: 0.6"/>
      </g>
     </g>
    </g>
    <g id="xtick_27">
     <g id="line2d_27">
      <g>
       <use xlink:href="#md33e884512" x="208.403895" y="34.658437" style="stroke: #000000; stroke-width: 0.6"/>
      </g>
     </g>
    </g>
    <g id="xtick_28">
     <g id="line2d_28">
      <g>
       <use xlink:href="#md33e884512" x="216.100447" y="34.658437" style="stroke: #000000; stroke-width: 0.6"/>
      </g>
     </g>
    </g>
    <g id="xtick_29">
     <g id="line2d_29">
      <g>
       <use xlink:href="#md33e884512" x="223.796999" y="34.658437" style="stroke: #000000; stroke-width: 0.6"/>
      </g>
     </g>
    </g>
    <g id="xtick_30">
     <g id="line2d_30">
      <g>
       <use xlink:href="#md33e884512" x="231.493551" y="34.658437" style="stroke: #000000; stroke-width: 0.6"/>
      </g>
     </g>
    </g>
   </g>
   <g id="matplotlib.axis_2"/>
   <g id="patch_32">
    <path d="M 15.990102 34.658437 
L 15.990102 20.798437 
" style="fill: none; stroke: #000000; stroke-width: 0.8; stroke-linejoin: miter; stroke-linecap: square"/>
   </g>
   <g id="patch_33">
    <path d="M 239.190102 34.658437 
L 239.190102 20.798437 
" style="fill: none; stroke: #000000; stroke-width: 0.8; stroke-linejoin: miter; stroke-linecap: square"/>
   </g>
   <g id="patch_34">
    <path d="M 15.990102 34.658437 
L 239.190102 34.658437 
" style="fill: none; stroke: #000000; stroke-width: 0.8; stroke-linejoin: miter; stroke-linecap: square"/>
   </g>
   <g id="patch_35">
    <path d="M 15.990102 20.798437 
L 239.190102 20.798437 
" style="fill: none; stroke: #000000; stroke-width: 0.8; stroke-linejoin: miter; stroke-linecap: square"/>
   </g>
   <g id="text_4">
    <!-- wiki-2.0 -->
    <g transform="translate(108.072134 14.798437) scale(0.1 -0.1)">
     <defs>
      <path id="DejaVuSans-77" d="M 269 3500 
L 844 3500 
L 1563 769 
L 2278 3500 
L 2956 3500 
L 3675 769 
L 4391 3500 
L 4966 3500 
L 4050 0 
L 3372 0 
L 2619 2869 
L 1863 0 
L 1184 0 
L 269 3500 
z
" transform="scale(0.015625)"/>
      <path id="DejaVuSans-69" d="M 603 3500 
L 1178 3500 
L 1178 0 
L 603 0 
L 603 3500 
z
M 603 4863 
L 1178 4863 
L 1178 4134 
L 603 4134 
L 603 4863 
z
" transform="scale(0.015625)"/>
      <path id="DejaVuSans-6b" d="M 581 4863 
L 1159 4863 
L 1159 1991 
L 2875 3500 
L 3609 3500 
L 1753 1863 
L 3688 0 
L 2938 0 
L 1159 1709 
L 1159 0 
L 581 0 
L 581 4863 
z
" transform="scale(0.015625)"/>
      <path id="DejaVuSans-2d" d="M 313 2009 
L 1997 2009 
L 1997 1497 
L 313 1497 
L 313 2009 
z
" transform="scale(0.015625)"/>
      <path id="DejaVuSans-32" d="M 1228 531 
L 3431 531 
L 3431 0 
L 469 0 
L 469 531 
Q 828 903 1448 1529 
Q 2069 2156 2228 2338 
Q 2531 2678 2651 2914 
Q 2772 3150 2772 3378 
Q 2772 3750 2511 3984 
Q 2250 4219 1831 4219 
Q 1534 4219 1204 4116 
Q 875 4013 500 3803 
L 500 4441 
Q 881 4594 1212 4672 
Q 1544 4750 1819 4750 
Q 2544 4750 2975 4387 
Q 3406 4025 3406 3419 
Q 3406 3131 3298 2873 
Q 3191 2616 2906 2266 
Q 2828 2175 2409 1742 
Q 1991 1309 1228 531 
z
" transform="scale(0.015625)"/>
      <path id="DejaVuSans-2e" d="M 684 794 
L 1344 794 
L 1344 0 
L 684 0 
L 684 794 
z
" transform="scale(0.015625)"/>
     </defs>
     <use xlink:href="#DejaVuSans-77"/>
     <use xlink:href="#DejaVuSans-69" transform="translate(81.787109 0)"/>
     <use xlink:href="#DejaVuSans-6b" transform="translate(109.570312 0)"/>
     <use xlink:href="#DejaVuSans-69" transform="translate(167.480469 0)"/>
     <use xlink:href="#DejaVuSans-2d" transform="translate(195.263672 0)"/>
     <use xlink:href="#DejaVuSans-32" transform="translate(231.347656 0)"/>
     <use xlink:href="#DejaVuSans-2e" transform="translate(294.970703 0)"/>
     <use xlink:href="#DejaVuSans-30" transform="translate(326.757812 0)"/>
    </g>
   </g>
  </g>
 </g>
 <defs>
  <clipPath id="paf49fb0c73">
   <rect x="15.990102" y="20.798437" width="223.2" height="13.86"/>
  </clipPath>
 </defs>
</svg>
